<svg xmlns="http://www.w3.org/2000/svg" viewBox="0 0 26 26" fill="none">
<path d="M19 0L7 0C5.1441 0.00198 3.36476 0.74012 2.05244 2.05244C0.74012 3.36476 0.00198 5.1441 0 7L0 19C0.00198 20.856 0.74012 22.6352 2.05244 23.9476C3.36476 25.2598 5.1441 25.998 7 26H19C20.856 25.998 22.6352 25.2598 23.9476 23.9476C25.2598 22.6352 25.998 20.856 26 19V7C25.998 5.1441 25.2598 3.36476 23.9476 2.05244C22.6352 0.74012 20.856 0.00198 19 0ZM13 19C11.8133 19 10.6533 18.6482 9.66658 17.9888C8.67988 17.3296 7.91084 16.3925 7.45672 15.2961C7.0026 14.1997 6.88378 12.9933 7.11528 11.8295C7.3468 10.6656 7.91824 9.59648 8.75736 8.75736C9.59648 7.91824 10.6656 7.3468 11.8295 7.11528C12.9933 6.88378 14.1997 7.0026 15.2961 7.45672C16.3925 7.91084 17.3296 8.67988 17.9888 9.66658C18.6482 10.6533 19 11.8133 19 13C18.9984 14.5908 18.3656 16.116 17.2408 17.2408C16.116 18.3656 14.5908 18.9984 13 19ZM20.5 7C20.2034 7 19.9134 6.91202 19.6666 6.7472C19.42 6.58238 19.2278 6.34812 19.1142 6.07402C19.0006 5.79994 18.971 5.49834 19.0288 5.20736C19.0868 4.9164 19.2296 4.64912 19.4394 4.43934C19.6492 4.22956 19.9164 4.0867 20.2074 4.02882C20.4984 3.97094 20.8 4.00064 21.074 4.11418C21.3482 4.22772 21.5824 4.41998 21.7472 4.66664C21.912 4.91332 22 5.20332 22 5.5C22 5.89782 21.842 6.27936 21.5606 6.56066C21.2794 6.84196 20.8978 7 20.5 7ZM17 13C17 13.7911 16.7654 14.5645 16.3259 15.2223C15.8864 15.8801 15.2616 16.3928 14.5307 16.6955C13.7998 16.9983 12.9956 17.0774 12.2196 16.9231C11.4437 16.7688 10.731 16.3878 10.1716 15.8284C9.61216 15.269 9.2312 14.5563 9.07686 13.7804C8.92252 13.0044 9.00174 12.2002 9.30448 11.4693C9.60724 10.7384 10.1199 10.1136 10.7777 9.67412C11.4355 9.2346 12.2089 9 13 9C14.0609 9 15.0783 9.42142 15.8284 10.1716C16.5786 10.9217 17 11.9391 17 13Z" fill="currentColor"/>
</svg>
