<svg xmlns="http://www.w3.org/2000/svg" viewBox="0 0 26 26" fill="none">
<path d="M13.3244 0.823711C14.634 0.803711 15.934 0.814111 17.2332 0.803711C17.2764 2.42851 17.9356 3.89091 18.9844 4.97411L18.9828 4.97251C20.1116 5.98931 21.5804 6.64851 23.1996 6.76051L23.222 6.76211V10.7909C21.6924 10.7525 20.254 10.3997 18.9572 9.79331L19.0228 9.82051C18.3956 9.51891 17.8652 9.20931 17.3612 8.86371L17.4028 8.89091C17.3932 11.8101 17.4124 14.7293 17.3828 17.6381C17.3004 19.1205 16.8076 20.4725 16.0172 21.6013L16.0332 21.5765C14.7116 23.4693 12.5708 24.7117 10.1364 24.7853H10.1252C10.0268 24.7901 9.91077 24.7925 9.79397 24.7925C8.40997 24.7925 7.11637 24.4069 6.01397 23.7373L6.04597 23.7557C4.03957 22.5485 2.65557 20.4829 2.39957 18.0805L2.39637 18.0477C2.37637 17.5477 2.36677 17.0477 2.38677 16.5581C2.77877 12.7349 5.98197 9.77731 9.87557 9.77731C10.3132 9.77731 10.742 9.81491 11.1588 9.88611L11.114 9.87971C11.134 11.3589 11.074 12.8389 11.074 14.3181C10.7356 14.1957 10.3452 14.1245 9.93797 14.1245C8.44357 14.1245 7.17237 15.0797 6.70197 16.4133L6.69477 16.4373C6.58837 16.7789 6.52677 17.1717 6.52677 17.5781C6.52677 17.7429 6.53717 17.9061 6.55637 18.0661L6.55477 18.0469C6.82037 19.6837 8.22357 20.9189 9.91557 20.9189C9.96437 20.9189 10.0124 20.9181 10.0604 20.9157H10.0532C11.2236 20.8805 12.2396 20.2509 12.814 19.3205L12.822 19.3061C13.0356 19.0085 13.182 18.6485 13.2308 18.2573L13.2316 18.2461C13.3316 16.4565 13.2916 14.6773 13.3012 12.8877C13.3108 8.85891 13.2916 4.83971 13.3212 0.821311L13.3244 0.823711Z" fill="currentColor"/>
</svg>
