<svg xmlns="http://www.w3.org/2000/svg" viewBox="0 0 28 22" fill="none">
<path d="M27.2912 3.69C27.1734 3.22918 26.9478 2.80298 26.6328 2.44654C26.318 2.0901 25.9228 1.81366 25.48 1.64C21.195 -0.0149953 14.375 4.75492e-06 14 4.75492e-06C13.625 4.75492e-06 6.805 -0.0149953 2.52 1.64C2.0772 1.81366 1.68204 2.0901 1.36712 2.44654C1.0522 2.80298 0.82654 3.22918 0.70876 3.69C0.385 4.9375 0 7.2175 0 11C0 14.7825 0.385 17.0626 0.70876 18.31C0.82636 18.771 1.05194 19.1976 1.36688 19.5542C1.6818 19.9108 2.07706 20.1874 2.52 20.3612C6.625 21.945 13.05 22 13.9175 22H14.0825C14.95 22 21.3788 21.945 25.48 20.3612C25.923 20.1874 26.3182 19.9108 26.6332 19.5542C26.948 19.1976 27.1736 18.771 27.2912 18.31C27.615 17.06 28 14.7825 28 11C28 7.2175 27.615 4.9375 27.2912 3.69ZM18.0738 11.815L13.0737 15.315C12.9242 15.4198 12.7488 15.4816 12.5666 15.4938C12.3844 15.506 12.2023 15.468 12.0401 15.384C11.878 15.3 11.7419 15.1732 11.6467 15.0174C11.5515 14.8615 11.5007 14.6826 11.5 14.5V7.5C11.5001 7.31708 11.5503 7.13766 11.6452 6.98128C11.7402 6.82492 11.8762 6.6976 12.0385 6.61316C12.2008 6.52874 12.3831 6.49044 12.5656 6.50244C12.7482 6.51444 12.9239 6.5763 13.0737 6.68126L18.0738 10.1813C18.2052 10.2735 18.3126 10.396 18.3868 10.5386C18.4608 10.6811 18.4996 10.8394 18.4996 11C18.4996 11.1606 18.4608 11.3189 18.3868 11.4614C18.3126 11.604 18.2052 11.7265 18.0738 11.8188V11.815Z" fill="currentColor"/>
</svg>
