<svg width="12" height="13" viewBox="0 0 12 13" fill="none" xmlns="http://www.w3.org/2000/svg">
<path fill-rule="evenodd" clip-rule="evenodd" d="M3.16667 0C3.44281 0 3.66667 0.223858 3.66667 0.5V1.33333H8.33333V0.5C8.33333 0.223858 8.55719 0 8.83333 0C9.10948 0 9.33333 0.223858 9.33333 0.5V1.33333H10.8333C11.4777 1.33333 12 1.85567 12 2.5V11.5C12 12.1443 11.4777 12.6667 10.8333 12.6667H1.16667C0.522335 12.6667 0 12.1443 0 11.5V2.5C0 1.85567 0.522335 1.33333 1.16667 1.33333H2.66667V0.5C2.66667 0.223858 2.89052 0 3.16667 0ZM1 5.66667V11.5C1 11.592 1.07462 11.6667 1.16667 11.6667H10.8333C10.9254 11.6667 11 11.592 11 11.5V5.66667H1Z" fill="currentColor"/>
</svg>
