<svg xmlns="http://www.w3.org/2000/svg" fill="none" height="23" viewBox="0 0 30 34" width="20">
  <g clip-path="url(#cr-logo)">
    <path d="M3.16819 10.9361L5.24136 7.73181L5.97543 11.6066L9.32731 12.8329L6.27621 14.8156L6.27453 18.7773L3.65335 16.1279L0.300625 17.3504L1.73314 13.7297L-0.337463 10.5235L3.16819 10.9361Z" fill="currentColor"/>
    <path d="M1.73314 25.3237L0.300776 22.6089L3.65372 23.5262L6.27435 21.5387L6.27531 24.5097L9.32731 25.9964L5.97531 26.9162L5.24101 29.8228L3.16843 27.4195L-0.337463 27.7286L1.73314 25.3237Z" fill="currentColor"/>
    <path d="M13.1567 32.0726L10.708 31.8553L12.5369 30.4681L12.0258 28.442L14.1593 29.477L16.2927 28.442L15.7816 30.4681L17.6114 31.8553L15.1619 32.0726L14.1593 33.9647L13.1567 32.0726Z" fill="currentColor"/>
    <path d="M25.6521 27.4199L23.8752 29.8228L23.2454 26.9162L20.3727 25.9972L22.9885 24.5099L22.9893 21.5387L25.2356 23.5262L28.1099 22.6088L26.8818 25.3241L28.6568 27.7286L25.6521 27.4199Z" fill="currentColor"/>
    <path d="M27.9668 13.7297L29.3995 17.3504L26.0467 16.1279L23.4264 18.7773L23.4247 14.8156L20.3727 12.8329L23.7246 11.6066L24.4587 7.73181L26.5319 10.9361L30.0375 10.5235L27.9668 13.7297Z" fill="currentColor"/>
    <path d="M16.8552 3.70467L21.7534 4.19424L18.0947 7.31447L19.1169 11.8739L14.85 9.54489L10.584 11.8739L11.6053 7.31447L7.94659 4.19424L12.8448 3.70467L14.85 -0.552246L16.8552 3.70467Z" fill="currentColor"/>
  </g>
  <defs>
    <clipPath id="cr-logo">
      <rect fill="white" height="33.4125" width="29.7"/>
    </clipPath>
  </defs>
</svg>
