<svg width="12" height="12" viewBox="0 0 12 12" fill="none" xmlns="http://www.w3.org/2000/svg">
<path fill-rule="evenodd" clip-rule="evenodd" d="M9.2257 5.3696e-07H5.44097C5.08955 -1.08734e-05 4.78636 -2.07163e-05 4.53665 0.0203813C4.27309 0.0419153 4.01094 0.0894593 3.75869 0.217989C3.38236 0.409735 3.0764 0.715697 2.88466 1.09202C2.75613 1.34427 2.70858 1.60642 2.68705 1.86998C2.66876 2.09384 2.66687 2.36066 2.66669 2.66669C2.36066 2.66687 2.09384 2.66876 1.86998 2.68705C1.60642 2.70858 1.34427 2.75613 1.09202 2.88466C0.715697 3.0764 0.409735 3.38236 0.217989 3.75869C0.0894593 4.01094 0.0419153 4.27309 0.0203813 4.53665C-2.07163e-05 4.78636 -1.08734e-05 5.08953 5.36958e-07 5.44095V9.2257C-1.08734e-05 9.57712 -2.07163e-05 9.88031 0.0203813 10.13C0.0419153 10.3936 0.0894593 10.6557 0.217989 10.908C0.409735 11.2843 0.715697 11.5903 1.09202 11.782C1.34427 11.9105 1.60642 11.9581 1.86998 11.9796C2.11968 12 2.42283 12 2.77422 12H6.55902C6.91041 12 7.21366 12 7.46335 11.9796C7.72692 11.9581 7.98906 11.9105 8.24132 11.782C8.61764 11.5903 8.9236 11.2843 9.11535 10.908C9.24388 10.6557 9.29142 10.3936 9.31296 10.13C9.33125 9.90617 9.33313 9.63935 9.33332 9.33332C9.63935 9.33313 9.90616 9.33125 10.13 9.31296C10.3936 9.29142 10.6557 9.24388 10.908 9.11535C11.2843 8.9236 11.5903 8.61764 11.782 8.24132C11.9105 7.98906 11.9581 7.72692 11.9796 7.46335C12 7.21366 12 6.9105 12 6.5591V2.77432C12 2.42292 12 2.11968 11.9796 1.86998C11.9581 1.60642 11.9105 1.34427 11.782 1.09202C11.5903 0.715697 11.2843 0.409735 10.908 0.217989C10.6557 0.0894593 10.3936 0.0419153 10.13 0.0203813C9.88031 -2.07163e-05 9.57712 -1.08734e-05 9.2257 5.3696e-07ZM9.33334 7.99995C9.6434 7.99966 9.85535 7.99762 10.0214 7.98405C10.2026 7.96925 10.2697 7.94414 10.3027 7.92734C10.4281 7.86342 10.5301 7.76144 10.594 7.636C10.6108 7.60303 10.6359 7.53589 10.6507 7.35478C10.6662 7.16589 10.6667 6.9177 10.6667 6.53334V2.8C10.6667 2.41563 10.6662 2.16745 10.6507 1.97856C10.6359 1.79745 10.6108 1.7303 10.594 1.69734C10.5301 1.5719 10.4281 1.46991 10.3027 1.406C10.2697 1.3892 10.2026 1.36408 10.0214 1.34929C9.83255 1.33385 9.58437 1.33334 9.2 1.33334H5.46667C5.0823 1.33334 4.83412 1.33385 4.64523 1.34929C4.46412 1.36408 4.39697 1.3892 4.36401 1.406C4.23857 1.46991 4.13658 1.5719 4.07266 1.69734C4.05587 1.7303 4.03075 1.79745 4.01595 1.97856C4.00238 2.14466 4.00034 2.3566 4.00005 2.66667H6.55903C6.91046 2.66666 7.21364 2.66665 7.46335 2.68705C7.72692 2.70858 7.98906 2.75613 8.24132 2.88466C8.61764 3.0764 8.9236 3.38236 9.11535 3.75869C9.24388 4.01094 9.29142 4.27309 9.31296 4.53665C9.33336 4.78636 9.33335 5.08954 9.33334 5.44097V7.99995Z" fill="currentColor"/>
</svg>
