<svg width="15" height="11" viewBox="0 0 15 11" fill="none" xmlns="http://www.w3.org/2000/svg">
  <path fill-rule="evenodd" clip-rule="evenodd" d="M7.08659 1.77048e-10C9.76018 1.97499e-05 12.36 1.65151 14.0402 4.79945C14.2175 5.1315 14.2175 5.53519 14.0402 5.86724C12.36 9.01519 9.76017 10.6666 7.08658 10.6666C4.41299 10.6666 1.81317 9.01511 0.132928 5.86717C-0.0443094 5.53511 -0.0443093 5.13143 0.132928 4.79937C1.81318 1.65143 4.413 -1.97879e-05 7.08659 1.77048e-10ZM4.66992 5.33333C4.66992 3.99864 5.75189 2.91667 7.08658 2.91667C8.42127 2.91667 9.50325 3.99864 9.50325 5.33333C9.50325 6.66802 8.42127 7.75 7.08658 7.75C5.75189 7.75 4.66992 6.66802 4.66992 5.33333Z" fill="currentColor"/>
</svg>
