<svg width="16" height="16" viewBox="0 0 12 12" fill="none" xmlns="http://www.w3.org/2000/svg">
<path fill-rule="evenodd" clip-rule="evenodd" d="M0 5.83333C0 2.61167 2.61167 0 5.83333 0C9.055 0 11.6667 2.61167 11.6667 5.83333C11.6667 9.055 9.055 11.6667 5.83333 11.6667C2.61167 11.6667 0 9.055 0 5.83333ZM5.83333 2.09838C6.07496 2.09838 6.27083 2.29426 6.27083 2.53588V3.03951C6.77055 3.13651 7.21107 3.3979 7.48618 3.77837C7.62776 3.97417 7.58381 4.24767 7.38801 4.38925C7.19221 4.53083 6.91871 4.48688 6.77713 4.29108C6.61204 4.06276 6.26915 3.87269 5.83333 3.87269H5.6668C5.07646 3.87269 4.77199 4.24006 4.77199 4.50103V4.54679C4.77199 4.74689 4.9176 4.99584 5.26507 5.13483L6.72656 5.71942C7.32057 5.95703 7.76968 6.47789 7.76968 7.11988C7.76968 7.94812 7.06241 8.51787 6.27083 8.64304V9.13079C6.27083 9.37241 6.07496 9.56829 5.83333 9.56829C5.59171 9.56829 5.39583 9.37241 5.39583 9.13079V8.62716C4.89612 8.53016 4.4556 8.26877 4.18048 7.8883C4.0389 7.6925 4.08286 7.419 4.27866 7.27742C4.47446 7.13584 4.74796 7.17979 4.88954 7.37559C5.05463 7.60391 5.39752 7.79398 5.83333 7.79398H5.94267C6.5646 7.79398 6.89468 7.40612 6.89468 7.11988C6.89468 6.91978 6.74907 6.67083 6.40159 6.53184L4.94011 5.94724C4.34609 5.70964 3.89699 5.18878 3.89699 4.54679V4.50103C3.89699 3.67887 4.61227 3.12182 5.39583 3.016V2.53588C5.39583 2.29426 5.59171 2.09838 5.83333 2.09838Z" fill="currentColor"/>
</svg>
