<svg xmlns="http://www.w3.org/2000/svg" fill="none" height="18" viewBox="0 0 18 18" width="18">
  <path d="M2.88842 14.2726C2.47069 13.6428 2.25001 12.8835 2.25 12C2.58755 9.63715 3.53278 7.88198 5.63268 6.1875H12.375V6.13919C14.4308 7.81499 15.406 9.59191 15.75 12C15.75 12.8835 15.5293 13.6428 15.1116 14.2726C14.6967 14.8981 14.1171 15.3518 13.4658 15.6769C12.1851 16.3161 10.5439 16.5 9 16.5C7.45609 16.5 5.81488 16.3161 4.53424 15.6769C3.88288 15.3518 3.30327 14.8981 2.88842 14.2726Z" fill="currentColor"/>
  <path d="M12.1424 3.2683C12.3311 2.76495 12.141 2.18688 11.6438 1.9825C10.844 1.65374 9.96043 1.5 9 1.5C8.03957 1.5 7.15601 1.65374 6.35622 1.9825C5.85901 2.18688 5.66886 2.76495 5.85761 3.2683L6.52668 5.05249L6.5 5.0625H11.5L11.4733 5.05249L12.1424 3.2683Z" fill="currentColor"/>
</svg>
