<svg width="20" height="21" viewBox="0 0 20 21" fill="none" xmlns="http://www.w3.org/2000/svg">
  <path d="M4.75 0C5.16421 0 5.5 0.335786 5.5 0.75V2H12.5V0.75C12.5 0.335786 12.8358 0 13.25 0C13.6642 0 14 0.335786 14 0.75V2H16.25C17.2165 2 18 2.7835 18 3.75V7.25C18 7.66421 17.6642 8 17.25 8H1.5V17.25C1.5 17.3881 1.61193 17.5 1.75 17.5H7.25C7.66421 17.5 8 17.8358 8 18.25C8 18.6642 7.66421 19 7.25 19H1.75C0.783502 19 0 18.2165 0 17.25V3.75C0 2.7835 0.783502 2 1.75 2H4V0.75C4 0.335786 4.33579 0 4.75 0Z" fill="currentColor"/>
  <path d="M12.6397 12.0772C13.1818 11.7413 13.8227 11.5469 14.5 11.5469C16.1079 11.5469 17.461 12.6466 17.8444 14.1361C17.9541 14.5623 18.3885 14.8189 18.8147 14.7092C19.2409 14.5995 19.4975 14.1651 19.3878 13.7389C18.8276 11.5623 16.8527 9.95312 14.5 9.95312C13.3847 9.95312 12.3389 10.3156 11.4919 10.9294L10.6257 10.0632C10.291 9.72848 9.71875 9.96551 9.71875 10.4388V12.875C9.71875 13.4618 10.1944 13.9375 10.7812 13.9375H13.2174C13.6907 13.9375 13.9278 13.3653 13.5931 13.0306L12.6397 12.0772Z" fill="currentColor"/>
  <path d="M11.1556 15.8639C11.0459 15.4377 10.6115 15.1811 10.1853 15.2908C9.75904 15.4005 9.50246 15.8349 9.61216 16.2611C10.1724 18.4377 12.1473 20.0469 14.5 20.0469C15.6155 20.0469 16.6614 19.6842 17.5081 19.0706L18.3743 19.9368C18.709 20.2715 19.2812 20.0345 19.2812 19.5612V17.125C19.2812 16.5382 18.8056 16.0625 18.2188 16.0625H15.7826C15.3093 16.0625 15.0722 16.6347 15.4069 16.9694L16.3602 17.9227C15.818 18.2588 15.1771 18.4531 14.5 18.4531C12.8921 18.4531 11.539 17.3534 11.1556 15.8639Z" fill="currentColor"/>
</svg>
