<svg width="16" height="18" viewBox="-1 0 16 18" fill="none" xmlns="http://www.w3.org/2000/svg">
<path d="M8.50388 2.93386C5.11288 0.673856 3.41688 -0.457144 2.03088 -0.0661441C1.59618 0.0567154 1.19326 0.272331 0.849883 0.565856C-0.245117 1.50186 -0.245117 3.53986 -0.245117 7.61586V10.0999C-0.245117 14.1759 -0.245117 16.2139 0.849883 17.1499C1.19313 17.4428 1.59566 17.658 2.02988 17.7809C3.41688 18.1729 5.11188 17.0429 8.50388 14.7829L10.3659 13.5409C13.1659 11.6739 14.5659 10.7409 14.8199 9.46886C14.8999 9.06613 14.8999 8.65159 14.8199 8.24886C14.5669 6.97686 13.1669 6.04286 10.3669 4.17586L8.50388 2.93386Z" fill="currentColor"/>
</svg>
