<svg width="13" height="13" viewBox="0 0 13 13" fill="none" xmlns="http://www.w3.org/2000/svg">
<path d="M6.24005 12.2973L3.64476 9.70197L0.914979 12.4317C0.719717 12.627 0.403135 12.627 0.207873 12.4317C0.0126106 12.2365 0.0126106 11.9199 0.207873 11.7246L2.93765 8.99486L0.342364 6.39957C-0.286654 5.77055 -0.00852243 4.69722 0.846815 4.45284L5.32973 3.17201C5.37156 3.16005 5.40706 3.13222 5.42865 3.09444L6.86092 0.587956C7.24259 -0.079956 8.15488 -0.202128 8.69883 0.341827L12.2978 3.94079C12.8417 4.48474 12.7196 5.39703 12.0517 5.7787L9.54518 7.21097C9.5074 7.23256 9.47957 7.26806 9.46762 7.30989L8.18678 11.7928C7.9424 12.6481 6.86906 12.9263 6.24005 12.2973Z" fill="currentColor"/>
</svg>
