<svg width="15" height="17" viewBox="0 0 15 17" fill="none" xmlns="http://www.w3.org/2000/svg">
<path d="M14.5284 6.84452C13.0454 6.84452 11.6723 6.3733 10.5511 5.57248V11.3939C10.5511 14.306 8.18915 16.6667 5.27564 16.6667C4.18856 16.6667 3.17816 16.3381 2.33882 15.7748C0.928533 14.8284 0 13.2192 0 11.3938C0 8.4819 2.36196 6.12119 5.27572 6.12125C5.51786 6.12113 5.7597 6.13757 5.99958 6.17034V6.81669L5.99944 9.08666C5.76856 9.01344 5.52243 8.97369 5.26706 8.97369C3.9342 8.97369 2.85391 10.0536 2.85391 11.3856C2.85391 12.3273 3.39391 13.1428 4.18135 13.5401C4.50785 13.7047 4.87659 13.7974 5.26708 13.7974C6.59719 13.7974 7.67563 12.7219 7.68022 11.3938V0H10.551V0.366908C10.5611 0.476599 10.5757 0.585873 10.5948 0.694432C10.794 1.83031 11.4735 2.80079 12.4167 3.38904C13.0501 3.78419 13.7819 3.99309 14.5284 3.99196L14.5284 6.84452Z" fill="currentColor"/>
</svg>
