<svg width="21" height="17" viewBox="0 0 21 17" fill="none" xmlns="http://www.w3.org/2000/svg">
<path fill-rule="evenodd" clip-rule="evenodd" d="M18.7043 0.507761C19.6084 0.78763 20.3189 1.60925 20.5609 2.65475C20.9982 4.54786 21 8.5 21 8.5C21 8.5 21 12.4522 20.5609 14.3453C20.3189 15.3908 19.6084 16.2124 18.7043 16.4922C17.0673 17 10.5 17 10.5 17C10.5 17 3.93274 17 2.29568 16.4922C1.39159 16.2124 0.6811 15.3908 0.439084 14.3453C0 12.4522 0 8.5 0 8.5C0 8.5 0 4.54786 0.439084 2.65475C0.6811 1.60925 1.39159 0.78763 2.29568 0.507761C3.93274 0 10.5 0 10.5 0C10.5 0 17.0673 0 18.7043 0.507761ZM14.0134 8.50031L8.29785 11.7999V5.20065L14.0134 8.50031Z" fill="currentColor"/>
</svg>
