<svg viewBox="0 0 13.3333 13.2851" fill="none" xmlns="http://www.w3.org/2000/svg">
<path id="vector" d="M5.05602 13.1373V8.70407H3.6801V6.66667H5.05602V5.78889C5.05602 3.51963 6.08269 2.46889 8.30936 2.46889C8.73084 2.46889 9.45862 2.55148 9.75751 2.63407V4.47963C9.6001 4.4637 9.32528 4.45556 8.98677 4.45556C7.89343 4.45556 7.47195 4.86889 7.47195 5.9463V6.66667H9.65084L9.27751 8.7037H7.47491V13.2851C10.7758 12.8853 13.3333 10.0747 13.3333 6.66667C13.3333 2.98482 10.3485 0 6.66667 0C2.98482 0 0 2.98482 0 6.66667C0 9.79324 2.15209 12.4169 5.05602 13.1373Z" fill="currentColor"/>
</svg>
