<svg xmlns="http://www.w3.org/2000/svg" width="16" height="16" viewBox="0 0 13 13" fill="none">
<path d="M6.33333 1.14115C8.02433 1.14115 8.2247 1.14748 8.89258 1.178C9.29408 1.18285 9.69177 1.25666 10.0683 1.39621C10.3434 1.49775 10.5923 1.65967 10.7966 1.87006C11.007 2.07438 11.1689 2.32326 11.2705 2.59839C11.41 2.9749 11.4838 3.37259 11.4887 3.77409C11.5192 4.44197 11.5255 4.64233 11.5255 6.33333C11.5255 8.02433 11.5192 8.2247 11.4887 8.89258C11.4838 9.29408 11.41 9.69177 11.2705 10.0683C11.1651 10.3415 11.0037 10.5896 10.7966 10.7966C10.5896 11.0037 10.3415 11.1651 10.0683 11.2705C9.69177 11.41 9.29408 11.4838 8.89258 11.4887C8.2247 11.5192 8.02433 11.5255 6.33333 11.5255C4.64233 11.5255 4.44197 11.5192 3.77409 11.4887C3.37239 11.4839 2.9745 11.4101 2.59782 11.2705C2.32289 11.1688 2.07421 11.0069 1.87006 10.7966C1.65967 10.5923 1.49775 10.3434 1.39621 10.0683C1.25666 9.69177 1.18285 9.29408 1.178 8.89258C1.14748 8.2247 1.14115 8.02433 1.14115 6.33333C1.14115 4.64233 1.14748 4.44197 1.178 3.77409C1.18285 3.37259 1.25666 2.9749 1.39621 2.59839C1.49775 2.32326 1.65967 2.07438 1.87006 1.87006C2.07438 1.65967 2.32326 1.49775 2.59839 1.39621C2.9749 1.25666 3.37259 1.18285 3.77409 1.178C4.44197 1.14748 4.64233 1.14115 6.33333 1.14115ZM6.33333 0C4.61355 0 4.39764 0.00748484 3.72227 0.038C3.1969 0.048481 2.67711 0.147961 2.185 0.332212C1.7622 0.491397 1.37924 0.740941 1.06285 1.06342C0.740643 1.37971 0.491302 1.76246 0.332212 2.185C0.148158 2.67715 0.0488724 3.19694 0.0385758 3.72227C0.00690911 4.39764 0 4.61355 0 6.33333C0 8.05312 0.00748484 8.26903 0.038 8.94439C0.048481 9.46976 0.147961 9.98955 0.332212 10.4817C0.491397 10.9045 0.740941 11.2874 1.06342 11.6038C1.37971 11.926 1.76246 12.1754 2.185 12.3345C2.67715 12.5185 3.19694 12.6178 3.72227 12.6281C4.39764 12.6598 4.61355 12.6667 6.33333 12.6667C8.05312 12.6667 8.26903 12.6592 8.94439 12.6287C9.46976 12.6182 9.98955 12.5187 10.4817 12.3345C10.9025 12.1717 11.2847 11.9229 11.6038 11.6038C11.9229 11.2847 12.1717 10.9025 12.3345 10.4817C12.5185 9.98952 12.6178 9.46973 12.6281 8.94439C12.6598 8.26903 12.6667 8.05312 12.6667 6.33333C12.6667 4.61355 12.6592 4.39764 12.6287 3.72227C12.6182 3.1969 12.5187 2.67711 12.3345 2.185C12.1753 1.7622 11.9257 1.37924 11.6032 1.06285C11.287 0.740643 10.9042 0.491302 10.4817 0.332212C9.98952 0.148158 9.46973 0.0488724 8.94439 0.0385758C8.26903 0.00690911 8.05312 0 6.33333 0ZM6.33333 3.08088C5.69006 3.08088 5.06123 3.27163 4.52637 3.62902C3.9915 3.9864 3.57463 4.49436 3.32846 5.08867C3.08229 5.68298 3.01788 6.33694 3.14337 6.96786C3.26887 7.59877 3.57864 8.1783 4.0335 8.63317C4.48837 9.08803 5.0679 9.3978 5.69881 9.52329C6.32973 9.64879 6.98369 9.58438 7.57799 9.33821C8.1723 9.09204 8.68027 8.67516 9.03765 8.1403C9.39503 7.60544 9.58579 6.97661 9.58579 6.33333C9.58579 5.47073 9.24312 4.64345 8.63317 4.0335C8.02321 3.42355 7.19594 3.08088 6.33333 3.08088ZM6.33333 8.44464C5.91576 8.44464 5.50756 8.32081 5.16036 8.08882C4.81315 7.85682 4.54254 7.52708 4.38274 7.14129C4.22294 6.7555 4.18113 6.33099 4.2626 5.92144C4.34406 5.51189 4.54515 5.13569 4.84042 4.84042C5.13569 4.54515 5.51189 4.34406 5.92144 4.2626C6.33099 4.18113 6.7555 4.22294 7.14129 4.38274C7.52708 4.54254 7.85682 4.81315 8.08882 5.16036C8.32081 5.50756 8.44464 5.91576 8.44464 6.33333C8.44464 6.89329 8.2222 7.4303 7.82625 7.82625C7.4303 8.2222 6.89329 8.44464 6.33333 8.44464ZM9.71418 2.19248C9.56387 2.19248 9.41693 2.23706 9.29195 2.32057C9.16697 2.40408 9.06956 2.52277 9.01203 2.66165C8.95451 2.80052 8.93946 2.95333 8.96879 3.10075C8.99811 3.24818 9.07049 3.3836 9.17678 3.48989C9.28307 3.59617 9.41849 3.66856 9.56591 3.69788C9.71334 3.72721 9.86615 3.71216 10.005 3.65463C10.1439 3.59711 10.2626 3.4997 10.3461 3.37472C10.4296 3.24974 10.4742 3.1028 10.4742 2.95248C10.4742 2.75092 10.3941 2.55761 10.2516 2.41508C10.1091 2.27256 9.91575 2.19248 9.71418 2.19248Z" fill="currentColor"/>
</svg>
