<svg xmlns="http://www.w3.org/2000/svg" width="16" height="16" viewBox="0 0 16 16" fill="none">
  <path d="M7.99984 2.8079C9.69084 2.8079 9.8912 2.81423 10.5591 2.84475C10.9606 2.8496 11.3583 2.92341 11.7348 3.06296C12.0099 3.1645 12.2588 3.32641 12.4631 3.53681C12.6735 3.74112 12.8354 3.99 12.937 4.26514C13.0765 4.64165 13.1503 5.03933 13.1552 5.44084C13.1857 6.10872 13.192 6.30908 13.192 8.00008C13.192 9.69108 13.1857 9.89145 13.1552 10.5593C13.1503 10.9608 13.0765 11.3585 12.937 11.735C12.8316 12.0082 12.6702 12.2563 12.4631 12.4634C12.2561 12.6704 12.008 12.8318 11.7348 12.9372C11.3583 13.0768 10.9606 13.1506 10.5591 13.1554C9.8912 13.1859 9.69084 13.1923 7.99984 13.1923C6.30884 13.1923 6.10847 13.1859 5.44059 13.1554C5.0389 13.1506 4.64101 13.0768 4.26432 12.9372C3.98939 12.8356 3.74071 12.6737 3.53656 12.4634C3.32617 12.259 3.16425 12.0102 3.06272 11.735C2.92316 11.3585 2.84935 10.9608 2.8445 10.5593C2.81399 9.89145 2.80766 9.69108 2.80766 8.00008C2.80766 6.30908 2.81399 6.10872 2.8445 5.44084C2.84935 5.03933 2.92316 4.64165 3.06272 4.26514C3.16425 3.99 3.32617 3.74112 3.53656 3.53681C3.74088 3.32641 3.98976 3.1645 4.2649 3.06296C4.6414 2.92341 5.03909 2.8496 5.44059 2.84475C6.10847 2.81423 6.30884 2.8079 7.99984 2.8079ZM7.99984 1.66675C6.28005 1.66675 6.06414 1.67423 5.38878 1.70475C4.86341 1.71523 4.34362 1.81471 3.8515 1.99896C3.42871 2.15814 3.04574 2.40769 2.72935 2.73017C2.40715 3.04645 2.15781 3.42921 1.99872 3.85175C1.81466 4.3439 1.71538 4.86368 1.70508 5.38902C1.67341 6.06438 1.6665 6.28029 1.6665 8.00008C1.6665 9.71987 1.67399 9.93578 1.7045 10.6111C1.71498 11.1365 1.81447 11.6563 1.99872 12.1484C2.1579 12.5712 2.40744 12.9542 2.72993 13.2706C3.04621 13.5928 3.42896 13.8421 3.8515 14.0012C4.34365 14.1853 4.86344 14.2845 5.38878 14.2948C6.06414 14.3265 6.28005 14.3334 7.99984 14.3334C9.71963 14.3334 9.93553 14.3259 10.6109 14.2954C11.1363 14.2849 11.6561 14.1855 12.1482 14.0012C12.569 13.8385 12.9512 13.5896 13.2703 13.2706C13.5894 12.9515 13.8382 12.5693 14.001 12.1484C14.185 11.6563 14.2843 11.1365 14.2946 10.6111C14.3263 9.93578 14.3332 9.71987 14.3332 8.00008C14.3332 6.28029 14.3257 6.06438 14.2952 5.38902C14.2847 4.86365 14.1852 4.34386 14.001 3.85175C13.8418 3.42895 13.5922 3.04599 13.2697 2.7296C12.9535 2.40739 12.5707 2.15805 12.1482 1.99896C11.656 1.81491 11.1362 1.71562 10.6109 1.70532C9.93553 1.67366 9.71963 1.66675 7.99984 1.66675ZM7.99984 4.74763C7.35656 4.74763 6.72773 4.93838 6.19287 5.29576C5.65801 5.65315 5.24113 6.16111 4.99496 6.75542C4.74879 7.34973 4.68438 8.00369 4.80988 8.6346C4.93537 9.26552 5.24514 9.84505 5.70001 10.2999C6.15487 10.7548 6.7344 11.0645 7.36532 11.19C7.99623 11.3155 8.65019 11.2511 9.2445 11.005C9.83881 10.7588 10.3468 10.3419 10.7042 9.80705C11.0615 9.27218 11.2523 8.64336 11.2523 8.00008C11.2523 7.13748 10.9096 6.3102 10.2997 5.70025C9.68972 5.0903 8.86244 4.74763 7.99984 4.74763ZM7.99984 10.1114C7.58226 10.1114 7.17406 9.98756 6.82686 9.75557C6.47966 9.52357 6.20905 9.19383 6.04925 8.80804C5.88945 8.42225 5.84764 7.99774 5.9291 7.58819C6.01057 7.17863 6.21165 6.80244 6.50692 6.50716C6.80219 6.21189 7.17839 6.01081 7.58794 5.92935C7.9975 5.84788 8.42201 5.88969 8.8078 6.04949C9.19359 6.20929 9.52333 6.4799 9.75532 6.8271C9.98732 7.17431 10.1111 7.58251 10.1111 8.00008C10.1111 8.56003 9.8887 9.09705 9.49275 9.493C9.09681 9.88894 8.55979 10.1114 7.99984 10.1114ZM11.3807 3.85923C11.2304 3.85923 11.0834 3.90381 10.9585 3.98732C10.8335 4.07083 10.7361 4.18952 10.6785 4.32839C10.621 4.46727 10.606 4.62008 10.6353 4.7675C10.6646 4.91493 10.737 5.05035 10.8433 5.15663C10.9496 5.26292 11.085 5.3353 11.2324 5.36463C11.3798 5.39395 11.5327 5.3789 11.6715 5.32138C11.8104 5.26386 11.9291 5.16645 12.0126 5.04147C12.0961 4.91649 12.1407 4.76955 12.1407 4.61923C12.1407 4.41767 12.0606 4.22436 11.9181 4.08183C11.7756 3.9393 11.5823 3.85923 11.3807 3.85923Z" fill="currentColor"/>
</svg>
