<svg xmlns="http://www.w3.org/2000/svg" width="16" height="16" viewBox="0 0 16 16" fill="none">
  <path d="M13.8095 6.80887C12.6231 6.80887 11.5246 6.43189 10.6276 5.79124V10.4483C10.6276 12.778 8.73809 14.6666 6.40728 14.6666C5.53761 14.6666 4.7293 14.4038 4.05783 13.9531C2.92959 13.196 2.18677 11.9086 2.18677 10.4483C2.18677 8.11877 4.07634 6.2302 6.40734 6.23025C6.60106 6.23016 6.79453 6.24331 6.98643 6.26953V6.78661L6.98632 8.60258C6.80162 8.544 6.60471 8.51221 6.40041 8.51221C5.33413 8.51221 4.4699 9.37615 4.4699 10.4417C4.4699 11.1951 4.90189 11.8475 5.53185 12.1653C5.79305 12.297 6.08804 12.3712 6.40043 12.3712C7.46452 12.3712 8.32728 11.5108 8.33095 10.4483V1.33325H10.6276V1.62678C10.6357 1.71453 10.6474 1.80195 10.6626 1.8888C10.822 2.7975 11.3656 3.57388 12.1201 4.04449C12.6268 4.36061 13.2123 4.52772 13.8095 4.52682L13.8095 6.80887Z" fill="currentColor"/>
</svg>
