<svg xmlns="http://www.w3.org/2000/svg" width="16" height="16" viewBox="0 0 16 16" fill="none">
  <path fill-rule="evenodd" clip-rule="evenodd" d="M4.49992 1.33325C3.85559 1.33325 3.33325 1.85559 3.33325 2.49992V2.66659H2.49992C1.85559 2.66659 1.33325 3.18892 1.33325 3.83325V4.83325C1.33325 6.09384 2.26626 7.13652 3.47939 7.3084C3.95787 9.13794 5.55901 10.5134 7.50252 10.6546V11.3333H5.16658C4.52225 11.3333 3.99992 11.8556 3.99992 12.4999V13.4999C3.99992 14.1442 4.52225 14.6666 5.16658 14.6666H10.8333C11.4776 14.6666 11.9999 14.1443 11.9999 13.4999V12.4999C11.9999 11.8556 11.4776 11.3333 10.8333 11.3333H8.50252V10.6542C10.4437 10.511 12.0424 9.13631 12.5204 7.3084C13.7336 7.13652 14.6666 6.09384 14.6666 4.83325V3.83325C14.6666 3.18892 14.1443 2.66659 13.4999 2.66659H12.6666V2.49992C12.6666 1.85559 12.1443 1.33325 11.4999 1.33325H4.49992ZM2.49992 3.66659H3.33325V6.16658C3.33325 6.19383 3.33349 6.22102 3.33398 6.24816C2.751 6.04244 2.33325 5.48663 2.33325 4.83325V3.83325C2.33325 3.7412 2.40787 3.66659 2.49992 3.66659ZM13.6666 4.83325C13.6666 5.48663 13.2488 6.04244 12.6659 6.24816C12.6663 6.22102 12.6666 6.19383 12.6666 6.16658V3.66659H13.4999C13.592 3.66659 13.6666 3.7412 13.6666 3.83325V4.83325Z" fill="currentColor"/>
</svg>
