<svg xmlns="http://www.w3.org/2000/svg" width="14" height="12" viewBox="0 0 14 12" fill="none">
  <path fill-rule="evenodd" clip-rule="evenodd" d="M1.33333 0.5C1.33333 0.223858 1.55719 0 1.83333 0H11.5C11.7761 0 12 0.223858 12 0.5C12 0.776142 11.7761 1 11.5 1H1.83333C1.55719 1 1.33333 0.776142 1.33333 0.5ZM0 2.83333C0 2.189 0.522334 1.66667 1.16667 1.66667H12.1667C12.811 1.66667 13.3333 2.189 13.3333 2.83333V10.8333C13.3333 11.4777 12.811 12 12.1667 12H1.16667C0.522335 12 0 11.4777 0 10.8333V2.83333ZM5.61246 4.7181C5.78335 4.63395 5.98721 4.65421 6.13819 4.77035L8.30485 6.43702C8.4279 6.53167 8.5 6.6781 8.5 6.83333C8.5 6.98857 8.4279 7.135 8.30485 7.22965L6.13819 8.89631C5.98721 9.01245 5.78335 9.03272 5.61246 8.94857C5.44157 8.86442 5.33333 8.69049 5.33333 8.5V5.16667C5.33333 4.97618 5.44157 4.80224 5.61246 4.7181Z" fill="black" fill-opacity="0.56"/>
</svg>
